<svg width="80" height="15" viewBox="0 0 80 15" fill="none"
    xmlns="http://www.w3.org/2000/svg">
    <path d="M0.382891 14.5V12.18H2.22289V2.82H0.382891V0.499999H6.14289C8.02289 0.499999 9.44956 0.979999 10.4229 1.94C11.4096 2.88667 11.9029 4.3 11.9029 6.18V8.82C11.9029 10.7 11.4096 12.12 10.4229 13.08C9.44956 14.0267 8.02289 14.5 6.14289 14.5H0.382891ZM4.86289 12.1H6.18289C7.24956 12.1 8.02956 11.82 8.52289 11.26C9.01622 10.7 9.26289 9.91333 9.26289 8.9V6.1C9.26289 5.07333 9.01622 4.28667 8.52289 3.74C8.02956 3.18 7.24956 2.9 6.18289 2.9H4.86289V12.1ZM18.7032 14.78C17.7165 14.78 16.8432 14.5733 16.0832 14.16C15.3365 13.7333 14.7499 13.14 14.3232 12.38C13.9099 11.6067 13.7032 10.7 13.7032 9.66V9.42C13.7032 8.38 13.9099 7.48 14.3232 6.72C14.7365 5.94667 15.3165 5.35333 16.0632 4.94C16.8099 4.51333 17.6765 4.3 18.6632 4.3C19.6365 4.3 20.4832 4.52 21.2032 4.96C21.9232 5.38667 22.4832 5.98667 22.8832 6.76C23.2832 7.52 23.4832 8.40667 23.4832 9.42V10.28H16.2632C16.2899 10.96 16.5432 11.5133 17.0232 11.94C17.5032 12.3667 18.0899 12.58 18.7832 12.58C19.4899 12.58 20.0099 12.4267 20.3432 12.12C20.6765 11.8133 20.9299 11.4733 21.1032 11.1L23.1632 12.18C22.9765 12.5267 22.7032 12.9067 22.3432 13.32C21.9965 13.72 21.5299 14.0667 20.9432 14.36C20.3565 14.64 19.6099 14.78 18.7032 14.78ZM16.2832 8.4H20.9232C20.8699 7.82667 20.6365 7.36667 20.2232 7.02C19.8232 6.67333 19.2965 6.5 18.6432 6.5C17.9632 6.5 17.4232 6.67333 17.0232 7.02C16.6232 7.36667 16.3765 7.82667 16.2832 8.4ZM27.0341 14.5V6.66H24.5141V4.58H27.0341V2.74C27.0341 2.06 27.2341 1.52 27.6341 1.12C28.0475 0.706666 28.5808 0.499999 29.2341 0.499999H31.6341V2.58H30.1141C29.7408 2.58 29.5541 2.78 29.5541 3.18V4.58H33.5541V6.66H29.5541V14.5H27.0341ZM33.5541 14.5V4.58H36.0741V14.5H33.5541ZM34.8141 3.5C34.3608 3.5 33.9741 3.35333 33.6541 3.06C33.3475 2.76667 33.1941 2.38 33.1941 1.9C33.1941 1.42 33.3475 1.03333 33.6541 0.74C33.9741 0.446666 34.3608 0.299999 34.8141 0.299999C35.2808 0.299999 35.6675 0.446666 35.9741 0.74C36.2808 1.03333 36.4341 1.42 36.4341 1.9C36.4341 2.38 36.2808 2.76667 35.9741 3.06C35.6675 3.35333 35.2808 3.5 34.8141 3.5ZM43.6307 14.78C42.6707 14.78 41.7974 14.5667 41.0107 14.14C40.2374 13.7 39.6174 13.0667 39.1507 12.24C38.6974 11.4 38.4707 10.38 38.4707 9.18V5.82C38.4707 4.02 38.9774 2.64 39.9907 1.68C41.004 0.706666 42.3774 0.219999 44.1107 0.219999C45.8307 0.219999 47.1574 0.679999 48.0907 1.6C49.0374 2.50667 49.5107 3.74 49.5107 5.3V5.38H46.9107V5.22C46.9107 4.72667 46.804 4.28 46.5907 3.88C46.3907 3.48 46.084 3.16667 45.6707 2.94C45.2574 2.7 44.7374 2.58 44.1107 2.58C43.1774 2.58 42.444 2.86667 41.9107 3.44C41.3774 4.01333 41.1107 4.79333 41.1107 5.78V9.22C41.1107 10.1933 41.3774 10.98 41.9107 11.58C42.444 12.1667 43.1907 12.46 44.1507 12.46C45.1107 12.46 45.8107 12.2067 46.2507 11.7C46.6907 11.1933 46.9107 10.5533 46.9107 9.78V9.58H43.5907V7.34H49.5107V14.5H47.0707V13.16H46.7107C46.6174 13.3867 46.464 13.6267 46.2507 13.88C46.0507 14.1333 45.744 14.3467 45.3307 14.52C44.9174 14.6933 44.3507 14.78 43.6307 14.78ZM56.6329 14.78C55.6462 14.78 54.7729 14.5733 54.0129 14.16C53.2662 13.7333 52.6796 13.14 52.2529 12.38C51.8396 11.6067 51.6329 10.7 51.6329 9.66V9.42C51.6329 8.38 51.8396 7.48 52.2529 6.72C52.6662 5.94667 53.2462 5.35333 53.9929 4.94C54.7396 4.51333 55.6062 4.3 56.5929 4.3C57.5662 4.3 58.4129 4.52 59.1329 4.96C59.8529 5.38667 60.4129 5.98667 60.8129 6.76C61.2129 7.52 61.4129 8.40667 61.4129 9.42V10.28H54.1929C54.2196 10.96 54.4729 11.5133 54.9529 11.94C55.4329 12.3667 56.0196 12.58 56.7129 12.58C57.4196 12.58 57.9396 12.4267 58.2729 12.12C58.6062 11.8133 58.8596 11.4733 59.0329 11.1L61.0929 12.18C60.9062 12.5267 60.6329 12.9067 60.2729 13.32C59.9262 13.72 59.4596 14.0667 58.8729 14.36C58.2862 14.64 57.5396 14.78 56.6329 14.78ZM54.2129 8.4H58.8529C58.7996 7.82667 58.5662 7.36667 58.1529 7.02C57.7529 6.67333 57.2262 6.5 56.5729 6.5C55.8929 6.5 55.3529 6.67333 54.9529 7.02C54.5529 7.36667 54.3062 7.82667 54.2129 8.4ZM63.6559 14.5V4.58H66.1359V5.88H66.4959C66.6559 5.53333 66.9559 5.20667 67.3959 4.9C67.8359 4.58 68.5025 4.42 69.3959 4.42C70.1692 4.42 70.8425 4.6 71.4159 4.96C72.0025 5.30667 72.4559 5.79333 72.7759 6.42C73.0959 7.03333 73.2559 7.75333 73.2559 8.58V14.5H70.7359V8.78C70.7359 8.03333 70.5492 7.47333 70.1759 7.1C69.8159 6.72667 69.2959 6.54 68.6159 6.54C67.8425 6.54 67.2425 6.8 66.8159 7.32C66.3892 7.82667 66.1759 8.54 66.1759 9.46V14.5H63.6559ZM77.5601 14.78C77.0267 14.78 76.5734 14.6067 76.2001 14.26C75.8401 13.9 75.6601 13.44 75.6601 12.88C75.6601 12.32 75.8401 11.8667 76.2001 11.52C76.5734 11.16 77.0267 10.98 77.5601 10.98C78.1067 10.98 78.5601 11.16 78.9201 11.52C79.2801 11.8667 79.4601 12.32 79.4601 12.88C79.4601 13.44 79.2801 13.9 78.9201 14.26C78.5601 14.6067 78.1067 14.78 77.5601 14.78Z" fill="white"/>
</svg>
